<svg xmlns="http://www.w3.org/2000/svg" viewBox="0 0 1644.74 1300.38"><defs><style>.cls-1{fill:#39a1ff;}.cls-2{fill:#150035;}.cls-3{fill:#fff;}.cls-4{fill:#1a0e33;}</style></defs><g id="Illustration"><g id="illustration-2" data-name="illustration"><path class="cls-1" d="M826,716.53c-1.94-1.11-4.55-.9-7.17.61l-42.37,24.45c-4.38,2.54-7.82,8-7.82,12.5v1a5.73,5.73,0,0,0,2.68,5.26l70.12,40.77a.86.86,0,0,0,1-.07l53.28-42.71a.84.84,0,0,0-.1-1.38Z" transform="translate(-496 -183.62)"/><path class="cls-2" d="M841.85,803.75a3.32,3.32,0,0,1-1.7-.46L770,762.53a8.24,8.24,0,0,1-3.92-7.43v-1c0-5.37,3.9-11.68,9.08-14.67L817.55,715c3.42-2,7-2.18,9.68-.62h0l69.57,40.45a3.35,3.35,0,0,1,.4,5.52L843.94,803A3.34,3.34,0,0,1,841.85,803.75Zm-18.63-85.41a6.52,6.52,0,0,0-3.16,1L777.7,743.77c-3.62,2.09-6.56,6.73-6.56,10.32v1a3.38,3.38,0,0,0,1.41,3.08l69.14,40.2,50.48-40.46L824.73,718.7A3.07,3.07,0,0,0,823.22,718.34Z" transform="translate(-496 -183.62)"/><path class="cls-3" d="M895.55,757,826,716.53c-1.94-1.11-4.55-.9-7.17.61l-42.36,24.45c-.89.52-.84,1.7-1.63,2.42l80.4,46.75,40.43-32.41A.84.84,0,0,0,895.55,757Z" transform="translate(-496 -183.62)"/><path class="cls-2" d="M855.45,793.79l-84.84-49.32,2.52-2.31a5,5,0,0,1,2.06-2.74L817.55,715c3.42-2,7-2.18,9.68-.62l69.58,40.46a3.35,3.35,0,0,1,.4,5.52Zm-76.89-50.51L855,787.72l37.17-29.8L824.72,718.7c-1.14-.65-2.83-.43-4.66.62Z" transform="translate(-496 -183.62)"/><path class="cls-1" d="M751.64,759.23c-1.95-1.11-4.55-.89-7.18.62l-11.24,6.32c-4.38,2.54-7.82,8-7.82,12.5v1a5.74,5.74,0,0,0,2.67,5.26l70.13,40.77a.85.85,0,0,0,.95-.07l22.15-24.58a.83.83,0,0,0-.1-1.38Z" transform="translate(-496 -183.62)"/><path class="cls-2" d="M798.52,828.31a3.08,3.08,0,0,1-1.57-.42l-70.14-40.78a8.23,8.23,0,0,1-3.93-7.42v-1c0-5.37,3.91-11.68,9.09-14.67l11.26-6.34c3.39-1.95,6.92-2.18,9.66-.6h0l69.56,40.45a3.35,3.35,0,0,1,.41,5.51L801,827.32A3.92,3.92,0,0,1,798.52,828.31ZM748.87,761a6.58,6.58,0,0,0-3.16,1l-11.25,6.34c-3.6,2.07-6.55,6.7-6.55,10.3v1a3.37,3.37,0,0,0,1.42,3.07l69,40.1,19.84-22.05-67.77-39.4A3.07,3.07,0,0,0,748.87,761Z" transform="translate(-496 -183.62)"/><path class="cls-3" d="M821.2,799.68l-69.56-40.45c-1.95-1.11-4.55-.89-7.18.62l-11.24,6.32c-.89.52-.83,1.7-1.62,2.42L812,815.34l9.3-14.28A.83.83,0,0,0,821.2,799.68Z" transform="translate(-496 -183.62)"/><path class="cls-2" d="M812.8,818.71l-85.42-49.66,2.52-2.31A5,5,0,0,1,732,764l11.26-6.34c3.39-1.95,6.92-2.18,9.66-.6l69.57,40.45a3.35,3.35,0,0,1,.8,5.15Zm-77.45-50.85L811.2,812l7.18-11-68-39.54c-1.13-.65-2.83-.43-4.66.62Z" transform="translate(-496 -183.62)"/><path class="cls-3" d="M964.93,665.92a14.57,14.57,0,0,0-15.44-.47L520.15,913.33a41.77,41.77,0,0,0-20.88,36.17v59.27a14.6,14.6,0,0,0,8.21,13.19l789.77,457.32L1464,1308l262.37-134.74,26.79-50.89Z" transform="translate(-496 -183.62)"/><path class="cls-2" d="M1297.81,1483.38l-792-458.59a17.8,17.8,0,0,1-9.85-16V949.5a45.18,45.18,0,0,1,22.51-39L947.86,662.62a17.92,17.92,0,0,1,18.79.51l790.9,458-28.73,54.59-262.83,135Zm-341-816.66a11.33,11.33,0,0,0-5.7,1.56L521.78,916.16a38.62,38.62,0,0,0-19.25,33.34v59.27a11.26,11.26,0,0,0,6.41,10.26l787.74,456.14,165.38-169.82.47-.25L1724,1170.84l24.85-47.21-785.7-455A11.5,11.5,0,0,0,956.83,666.72Z" transform="translate(-496 -183.62)"/><path class="cls-1" d="M1352.4,1421.86,503.6,930.4a41.5,41.5,0,0,0-4.33,18.32V1008a14.61,14.61,0,0,0,8.21,13.19l789.77,457.32Z" transform="translate(-496 -183.62)"/><path class="cls-2" d="M1297.81,1482.6l-792-458.6a17.79,17.79,0,0,1-9.85-16V948.72A44.68,44.68,0,0,1,500.66,929l1.54-3.14,3,1.75,852.43,493.56ZM505.12,935.06a37.51,37.51,0,0,0-2.59,13.66V1008a11.26,11.26,0,0,0,6.41,10.26l787.74,456.14,50.45-51.81Z" transform="translate(-496 -183.62)"/><path class="cls-1" d="M710.66,1131.23V1072a41.67,41.67,0,0,1,4.33-18.32l-65.53-38.09a41.71,41.71,0,0,0-4.33,18.33v59.27a14.62,14.62,0,0,0,8.22,13.19l63.11,36.54A14.46,14.46,0,0,1,710.66,1131.23Z" transform="translate(-496 -183.62)"/><path class="cls-2" d="M714.82,1145.71l-63.11-36.55a17.8,17.8,0,0,1-9.85-16v-59.27a44.53,44.53,0,0,1,4.67-19.76l1.54-3.15,71.2,41.37-1.34,2.74a38,38,0,0,0-4,16.88v59.27a11.15,11.15,0,0,0,4.5,9ZM651,1020.22a37.75,37.75,0,0,0-2.58,13.66v59.27a11.25,11.25,0,0,0,6.4,10.26L707.6,1134a17.9,17.9,0,0,1-.21-2.75V1072a44.3,44.3,0,0,1,3.41-17Z" transform="translate(-496 -183.62)"/><path class="cls-1" d="M949.25,665.45l-8.54,4.93.75,1.44L1731,1129l18.59-.19,3.4-6.45L964.69,665.92A14.57,14.57,0,0,0,949.25,665.45Z" transform="translate(-496 -183.62)"/><path class="cls-2" d="M1730.11,1132.3l-.78-.45L939,674.18l-2.64-5.06,11.26-6.5a18,18,0,0,1,18.87.56l790.82,457.94-5.77,11ZM946.36,670.89l785.48,454.86,15.74-.17,1-1.95L963.05,668.75a11.33,11.33,0,0,0-12.16-.47Z" transform="translate(-496 -183.62)"/><rect class="cls-2" x="890.76" y="720.98" width="6.54" height="912.34" transform="translate(-1068.67 1177.29) rotate(-59.93)"/><path class="cls-2" d="M507.48,1021.13l789.77,457.32,6.6-6.78-15.07-14.48L499.27,1000v8A14.6,14.6,0,0,0,507.48,1021.13Z" transform="translate(-496 -183.62)"/><path class="cls-2" d="M1297.81,1482.56,505.93,1024a17.89,17.89,0,0,1-9.93-16.06V994.32l4.9,2.85,789.86,457.39,17.72,17ZM502.53,1005.67v2.27a11.26,11.26,0,0,0,6.41,10.26l.18.1,787.56,456.05,2.53-2.61-12.41-11.92Z" transform="translate(-496 -183.62)"/><rect class="cls-2" x="933.02" y="673.82" width="6.54" height="912.34" transform="translate(-1006.77 1190.34) rotate(-59.93)"/><rect class="cls-2" x="1281.85" y="473.58" width="6.54" height="912.34" transform="translate(-659.47 1392.31) rotate(-59.93)"/><rect class="cls-2" x="1480.82" y="1224.93" width="6.53" height="44.27" transform="translate(-834.02 1724.98) rotate(-59.99)"/><rect class="cls-2" x="1361.11" y="1071.44" width="6.54" height="212.6" transform="translate(-834.68 1584.19) rotate(-59.91)"/><rect class="cls-2" x="894.91" y="826.31" width="6.54" height="162.87" transform="translate(-833.46 1046.48) rotate(-59.92)"/><rect class="cls-2" x="787.45" y="816.56" width="6.54" height="57.91" transform="translate(-833.22 922.47) rotate(-59.93)"/><rect class="cls-2" x="988.91" y="953.75" width="6.54" height="595.32" transform="translate(-1083.97 1299.28) rotate(-59.93)"/><rect class="cls-2" x="594.26" y="993.62" width="6.54" height="57.26" transform="matrix(0.5, -0.87, 0.87, 0.5, -1082.54, 843.43)"/><rect class="cls-2" x="1503.14" y="818.9" width="6.54" height="400.59" transform="translate(-626.48 1628.44) rotate(-59.93)"/><rect class="cls-2" x="1263.99" y="839.44" width="6.54" height="82.53" transform="translate(-625.95 1352.37) rotate(-59.92)"/><path class="cls-2" d="M1740.23,1230.85l-429.34,247.88a14.74,14.74,0,0,1-22.11-12.76V1406.7a41.77,41.77,0,0,1,20.88-36.17L1739,1122.65a14.74,14.74,0,0,1,22.11,12.76v59.27A41.77,41.77,0,0,1,1740.23,1230.85Z" transform="translate(-496 -183.62)"/><path class="cls-2" d="M1303.51,1484a18.07,18.07,0,0,1-18-18V1406.7a45.16,45.16,0,0,1,22.52-39l429.34-247.88a18,18,0,0,1,27,15.59v59.28a45.13,45.13,0,0,1-22.52,39l-429.34,247.88A18,18,0,0,1,1303.51,1484Zm442.86-360.08a11.41,11.41,0,0,0-5.73,1.56L1311.3,1373.36a38.59,38.59,0,0,0-19.25,33.34V1466a11.47,11.47,0,0,0,17.2,9.93L1738.59,1228a38.6,38.6,0,0,0,19.25-33.33v-59.28a11.53,11.53,0,0,0-11.47-11.49Z" transform="translate(-496 -183.62)"/><path class="cls-2" d="M1731.67,1222.06,1306.22,1467.7a3,3,0,0,1-4.56-2.63V1408a33.12,33.12,0,0,1,16.56-28.68l425.46-245.64a3,3,0,0,1,4.55,2.63v57.07A33.12,33.12,0,0,1,1731.67,1222.06Z" transform="translate(-496 -183.62)"/><path class="cls-1" d="M1304.69,1470.63a5.6,5.6,0,0,1-5.55-5.56V1408a35.74,35.74,0,0,1,17.82-30.86l425.46-245.63a5.55,5.55,0,0,1,8.33,4.81v57.06a35.74,35.74,0,0,1-17.82,30.86l-425.46,245.63A5.46,5.46,0,0,1,1304.69,1470.63Zm440.51-334.84a.54.54,0,0,0-.27.07l-425.46,245.63a30.71,30.71,0,0,0-15.3,26.51v57.07a.49.49,0,0,0,.26.45.5.5,0,0,0,.53,0l425.46-245.63a30.71,30.71,0,0,0,15.3-26.51v-57.06a.51.51,0,0,0-.26-.46A.54.54,0,0,0,1745.2,1135.79Z" transform="translate(-496 -183.62)"/><path class="cls-2" d="M1398.63,1390.42l-60.79,35.09c-2,1.18-3.69-.07-3.69-2.78V1399c0-2.71,1.65-5.87,3.69-7l60.79-35.09c2-1.18,3.69.07,3.69,2.79v23.76C1402.32,1386.09,1400.67,1389.24,1398.63,1390.42Z" transform="translate(-496 -183.62)"/><path class="cls-1" d="M1336.37,1428.47a4.36,4.36,0,0,1-2.2-.58,5.68,5.68,0,0,1-2.53-5.16V1399c0-3.62,2.12-7.59,4.94-9.22l60.79-35.1a4.84,4.84,0,0,1,4.93-.19,5.68,5.68,0,0,1,2.53,5.16v23.76c0,3.63-2.12,7.6-4.94,9.23l-60.79,35.09A5.46,5.46,0,0,1,1336.37,1428.47Zm63.4-69.37-60.67,35a6.36,6.36,0,0,0-2.43,4.87v23.77a3.68,3.68,0,0,0,0,.51l60.67-35a6.4,6.4,0,0,0,2.43-4.88v-23.76A3.49,3.49,0,0,0,1399.77,1359.1Z" transform="translate(-496 -183.62)"/><rect class="cls-1" x="1339.61" y="1392.92" width="57.56" height="5.02" transform="translate(-1010.6 688.28) rotate(-30.02)"/><path class="cls-2" d="M1482.41,1342.05l-60.79,35.09c-2,1.18-3.69-.07-3.69-2.78v-23.77c0-2.71,1.66-5.87,3.69-7l60.79-35.09c2-1.18,3.69.07,3.69,2.79V1335C1486.1,1337.72,1484.45,1340.87,1482.41,1342.05Z" transform="translate(-496 -183.62)"/><path class="cls-1" d="M1420.15,1380.1a4.36,4.36,0,0,1-2.2-.58,5.68,5.68,0,0,1-2.53-5.16v-23.77c0-3.63,2.13-7.6,4.95-9.22l60.78-35.1a4.81,4.81,0,0,1,4.93-.19,5.68,5.68,0,0,1,2.53,5.16V1335c0,3.64-2.13,7.6-4.94,9.23l-60.79,35.09A5.46,5.46,0,0,1,1420.15,1380.1Zm63.4-69.37-60.67,35a6.46,6.46,0,0,0-2.43,4.87v23.77a3.68,3.68,0,0,0,0,.51l60.67-35a6.44,6.44,0,0,0,2.43-4.87v-23.76A3.49,3.49,0,0,0,1483.55,1310.73Z" transform="translate(-496 -183.62)"/><rect class="cls-1" x="1423.38" y="1344.55" width="57.56" height="5.02" transform="translate(-975.15 723.71) rotate(-30.02)"/><path class="cls-1" d="M1665,1225.18a3,3,0,0,1-1.53-.4,3.67,3.67,0,0,1-1.65-3.35,9,9,0,0,1,4.12-7.13,3.36,3.36,0,0,1,5.37,3.1,9,9,0,0,1-4.12,7.14A4.39,4.39,0,0,1,1665,1225.18Zm3.13-9a2.06,2.06,0,0,0-.94.31,6.41,6.41,0,0,0-2.86,5c0,.59.15,1,.4,1.18a1.37,1.37,0,0,0,1.21-.25,6.42,6.42,0,0,0,2.86-5,1.4,1.4,0,0,0-.39-1.17A.61.61,0,0,0,1668.17,1216.17Z" transform="translate(-496 -183.62)"/><path class="cls-1" d="M1648.93,1234.49a3.09,3.09,0,0,1-1.53-.4,3.7,3.7,0,0,1-1.65-3.35,9,9,0,0,1,4.12-7.14,3.35,3.35,0,0,1,5.37,3.11,9,9,0,0,1-4.11,7.13A4.47,4.47,0,0,1,1648.93,1234.49Zm3.13-9a2,2,0,0,0-.93.31,6.42,6.42,0,0,0-2.87,5c0,.58.15,1,.4,1.17a1.4,1.4,0,0,0,1.21-.25,6.41,6.41,0,0,0,2.86-5c0-.59-.15-1-.39-1.18A.61.61,0,0,0,1652.06,1225.47Z" transform="translate(-496 -183.62)"/><path class="cls-1" d="M1637.88,1236a7.73,7.73,0,0,1-3.49,6c-1.93,1.12-3.5.21-3.5-2a7.73,7.73,0,0,1,3.5-6C1636.31,1232.88,1637.88,1233.78,1637.88,1236Z" transform="translate(-496 -183.62)"/><path class="cls-1" d="M1632.82,1244.41a3.7,3.7,0,0,1-1.85-.48,4.31,4.31,0,0,1-2-3.89,9.51,9.51,0,0,1,4.44-7.68,4,4,0,0,1,6.31,3.65,9.52,9.52,0,0,1-4.43,7.68A5.09,5.09,0,0,1,1632.82,1244.41Zm3.06-9s-.22.06-.55.24a5.91,5.91,0,0,0-2.55,4.42,1.5,1.5,0,0,0,.11.63,4,4,0,0,0,.55-.25A5.89,5.89,0,0,0,1636,1236,1.28,1.28,0,0,0,1635.88,1235.38Z" transform="translate(-496 -183.62)"/><path class="cls-1" d="M1621.77,1245.31a7.76,7.76,0,0,1-3.49,6c-1.93,1.11-3.5.21-3.5-2a7.73,7.73,0,0,1,3.5-6C1620.2,1242.18,1621.77,1243.08,1621.77,1245.31Z" transform="translate(-496 -183.62)"/><path class="cls-1" d="M1616.71,1253.72a3.64,3.64,0,0,1-1.84-.48,4.32,4.32,0,0,1-2-3.9,9.53,9.53,0,0,1,4.44-7.68,4,4,0,0,1,6.31,3.65,9.55,9.55,0,0,1-4.43,7.68A5.11,5.11,0,0,1,1616.71,1253.72Zm3.07-9a5.22,5.22,0,0,0-.56.24,5.94,5.94,0,0,0-2.55,4.42,1.46,1.46,0,0,0,.11.63,4.37,4.37,0,0,0,.56-.25,5.92,5.92,0,0,0,2.54-4.41A1.49,1.49,0,0,0,1619.78,1244.68Z" transform="translate(-496 -183.62)"/><path class="cls-1" d="M1605.66,1254.61a7.75,7.75,0,0,1-3.49,6.05c-1.93,1.11-3.5.21-3.5-2a7.73,7.73,0,0,1,3.5-6.05C1604.09,1251.48,1605.66,1252.38,1605.66,1254.61Z" transform="translate(-496 -183.62)"/><path class="cls-1" d="M1600.6,1263a3.66,3.66,0,0,1-1.84-.48,4.29,4.29,0,0,1-2-3.9,9.55,9.55,0,0,1,4.43-7.68,4,4,0,0,1,6.32,3.65,9.51,9.51,0,0,1-4.44,7.68A5,5,0,0,1,1600.6,1263Zm3.06-9a4.37,4.37,0,0,0-.56.25,6,6,0,0,0-2.54,4.41,1.28,1.28,0,0,0,.11.63,4.66,4.66,0,0,0,.55-.25,5.89,5.89,0,0,0,2.55-4.41A1.46,1.46,0,0,0,1603.66,1254Z" transform="translate(-496 -183.62)"/><path class="cls-1" d="M1244.72,1090.48a.9.9,0,0,0,0-.54v-18.59s0,0,0-.07c-1.82-1.13-124.68-79.18-124.81-79.79-1.81-8.54-11.7-12.75-14.42-13.75a.51.51,0,0,0-.69.5v17.9h0l2.58,18.59a.12.12,0,0,1-.16.12l-79.78-42h0l-19.5-10.14a.11.11,0,0,0-.16.1v18.44a1.6,1.6,0,0,0,.5,1.23l128.27,93.24c1.16.83,3,.19,2.87-1v-18.65l-3.14-4-1-7c-.14-1,1.28-1.69,2.49-1.18l104.49,47.39a1.81,1.81,0,0,0,2.46-.77Z" transform="translate(-496 -183.62)"/><path class="cls-2" d="M1243.14,1094a4.91,4.91,0,0,1-1.84-.37l-103.25-46.84.59,4.27,3.26,4.2v19.51a3.41,3.41,0,0,1-1.8,3.23,4.65,4.65,0,0,1-5-.21l-128.29-93.25a4,4,0,0,1-1.54-3.32v-19.8l2.49-1.56,1.37.67,19.48,10.11,75.64,39.86-2-14.31V976.92l1.3-1.18a3,3,0,0,1,2.78-.35c3.12,1.15,13.23,5.53,15.77,14.61,9.85,6.73,122.87,78.5,123.9,79.14l1.28.78-.06,1.55v18.22a3.28,3.28,0,0,1-.13,1.59v0a3.9,3.9,0,0,1-2.11,2.26A4.67,4.67,0,0,1,1243.14,1094Zm-106.22-52.77a4.74,4.74,0,0,1,1.81.35l103.47,46.94v-15.79c-13.08-8.21-124.26-78.17-124.78-80.68-1.16-5.48-6.63-9-10.14-10.73v14.88l2.75,19.73-2.42,1.85-1.44-.57-95.92-50.41v14.06l126.63,92v-15.92l-3-3.9-1.06-7.65a3.57,3.57,0,0,1,1.4-3.32A4.49,4.49,0,0,1,1136.92,1041.18Z" transform="translate(-496 -183.62)"/><path class="cls-3" d="M1008.25,963.81l128.27,93.24c1.16.83,3,.19,2.87-1l-4.11-29.67c-.14-1,1.28-1.69,2.49-1.19l104.49,47.4c1.79.74,3.43-1,1.93-2L1107.61,976.5c-1.17-.8-3-.16-2.84,1l4.18,30.19c.14,1-1.29,1.69-2.49,1.19l-96.25-47.07C1008.44,961.07,1006.79,962.76,1008.25,963.81Z" transform="translate(-496 -183.62)"/><path class="cls-2" d="M1243.12,1075.29a4.65,4.65,0,0,1-1.82-.36l-103.25-46.83,3.83,27.63a3.59,3.59,0,0,1-1.78,3.58,4.65,4.65,0,0,1-5-.22l-128.28-93.24a3.53,3.53,0,0,1-1.15-4.67,4.4,4.4,0,0,1,5.56-1.68l95,46.44-3.89-28.1a3.57,3.57,0,0,1,1.75-3.55,4.64,4.64,0,0,1,5,.14l136.57,94.08a3.55,3.55,0,0,1,1.25,4.7A4.21,4.21,0,0,1,1243.12,1075.29Zm-106.2-52.76a4.65,4.65,0,0,1,1.8.35l93.07,42.22-124.2-85.56,3.85,27.81a3.51,3.51,0,0,1-1.4,3.31,4.62,4.62,0,0,1-4.55.53l-84.86-41.48L1136.56,1054l-3.77-27.23a3.57,3.57,0,0,1,1.39-3.31A4.55,4.55,0,0,1,1136.92,1022.53Z" transform="translate(-496 -183.62)"/><rect class="cls-2" x="619.17" y="860.52" width="5.03" height="18.64"/><rect class="cls-2" x="520.57" y="788.39" width="5.03" height="18.64"/><rect class="cls-2" x="658.43" y="850.75" width="5.03" height="18.65"/><rect class="cls-2" x="734.89" y="886.27" width="5.03" height="18.64"/><path class="cls-2" d="M1715.78,1207.31l-21.72,12.55c-2,1.17-3.69-.08-3.69-2.79V1193.3c0-2.71,1.65-5.87,3.69-7l21.72-12.54c2-1.17,3.69.08,3.69,2.79v23.77C1719.47,1203,1717.81,1206.14,1715.78,1207.31Z" transform="translate(-496 -183.62)"/><path class="cls-1" d="M1692.59,1222.81a4.25,4.25,0,0,1-2.2-.59,5.66,5.66,0,0,1-2.54-5.16V1193.3c0-3.63,2.13-7.59,5-9.22l21.72-12.54a4.82,4.82,0,0,1,4.93-.2,5.68,5.68,0,0,1,2.53,5.16v23.77c0,3.63-2.13,7.6-5,9.22L1695.31,1222A5.43,5.43,0,0,1,1692.59,1222.81Zm24.32-46.82-21.6,12.44a6.41,6.41,0,0,0-2.43,4.87v23.76a2.55,2.55,0,0,0,0,.52l21.6-12.45a6.42,6.42,0,0,0,2.43-4.86V1176.5A2.51,2.51,0,0,0,1716.91,1176Z" transform="translate(-496 -183.62)"/><polygon class="cls-1" points="1216.86 1007.08 1210.21 1010.92 1210.21 1003.24 1207.62 1004.74 1207.62 1012.41 1200.97 1016.25 1200.97 1019.25 1207.62 1015.41 1207.62 1023.08 1210.21 1021.59 1210.21 1013.91 1216.86 1010.08 1216.86 1007.08"/><path class="cls-1" d="M1703,1207.79v-7.67l-6.64,3.84v-4.45l6.64-3.84V1188l3.85-2.23v7.68l6.65-3.84v4.45l-6.65,3.84v7.67Zm1.26-9.85v7.67l1.34-.77v-7.67l6.64-3.84v-1.54l-6.64,3.84V1188l-1.34.77v7.68l-6.65,3.84v1.54Z" transform="translate(-496 -183.62)"/><path class="cls-1" d="M647.09,1104.71a20.21,20.21,0,0,1-4.47-11.49v-8.76h5v8.69a15.24,15.24,0,0,0,3.26,8.28Z" transform="translate(-496 -183.62)"/><path class="cls-1" d="M712,1142.45A20.22,20.22,0,0,1,707.5,1131v-8.76h5v8.69a15.15,15.15,0,0,0,3.26,8.28Z" transform="translate(-496 -183.62)"/><path class="cls-1" d="M853.6,1224.69a20.07,20.07,0,0,1-4.48-11.48v-8.76h5v8.69a15.1,15.1,0,0,0,3.26,8.27Z" transform="translate(-496 -183.62)"/><path class="cls-1" d="M514.72,1028.16a20.26,20.26,0,0,1-4.48-11.49v-8.76h5v8.69a15.19,15.19,0,0,0,3.26,8.27Z" transform="translate(-496 -183.62)"/><path class="cls-1" d="M1288.81,1476.17a20.17,20.17,0,0,1-4.47-11.49v-8.76h5v8.69a15.15,15.15,0,0,0,3.26,8.28Z" transform="translate(-496 -183.62)"/><path class="cls-1" d="M1254.88,1457.56a20.15,20.15,0,0,1-4.48-11.49v-8.76h5V1446a15.11,15.11,0,0,0,3.26,8.28Z" transform="translate(-496 -183.62)"/><path class="cls-2" d="M769.13,456c5.14,7.69,13.22,15.07,24.29,21.46L1483.93,876c37.36,21.56,93.86,23.89,126.21,5.21L1912.5,706.59c13.67-7.9,20.76-18.29,21.66-29.28l0,0c3.39-18.11-1.82-38.93-1.82-38.93l-20.12,1.13,0,.08a93,93,0,0,0-8.82-5.84L1212.92,235.19c-37.36-21.56-93.87-23.89-126.21-5.21L784.35,404.61l-23-1.2a64.15,64.15,0,0,0,6.35,50.44c.08.15.17.25.25.39.33.54.7,1.07,1,1.61Z" transform="translate(-496 -183.62)"/><path class="cls-2" d="M1555.32,897.26c-25.45,0-52.26-6.17-73.14-18.22L791.67,480.5c-11.2-6.46-19.76-14-25.44-22.51l-.41-.61c-.3-.44-.59-.88-.86-1.32-16.05-27.09-6.13-58.44-6.13-58.44l7.67-.89,17,4.32L1085,227c33.27-19.21,91.45-16.87,129.72,5.21l690.51,398.53a92.79,92.79,0,0,1,8,5.23l21.87-1.23.7,2.81c.22.89,5.36,21.78,1.86,40.43l-.06.31c-1.25,12.44-9.31,23.28-23.34,31.38L1611.9,884.25C1596.78,893,1576.52,897.26,1555.32,897.26ZM772,454l.06.09c5.08,7.58,12.86,14.44,23.13,20.36L1485.68,873c36.34,21,91.38,23.3,122.71,5.21l302.35-174.62c12.19-7,19.08-16.22,19.93-26.53l.37-2c2-12.95-.26-27.12-1.43-33l-14.7.83-.73,2.38-4-2.85a88.46,88.46,0,0,0-8.51-5.62L1211.16,238.23c-36.31-21-91.38-23.31-122.7-5.21L785.2,408.16,764,407.05c-1.61,6.67-4.65,25.76,6.74,45,.45.71.69,1.06.93,1.41l-2.54,2.5Z" transform="translate(-496 -183.62)"/><path class="cls-3" d="M783.08,374.29l302.35-174.63c32.35-18.68,88.85-16.35,126.21,5.21L1902.15,603.4c37.36,21.56,41.42,54.19,9.07,72.87L1608.87,850.89c-32.35,18.69-88.86,16.35-126.21-5.21L792.15,447.15C754.79,425.59,750.73,393,783.08,374.29Z" transform="translate(-496 -183.62)"/><path class="cls-2" d="M1554.05,866.93c-25.46,0-52.27-6.17-73.15-18.21L790.4,450.19c-20.76-12-32.66-28.11-32.66-44.26,0-13.58,8.37-25.89,23.58-34.68l302.36-174.62c33.25-19.21,91.45-16.87,129.72,5.21l690.5,398.53c20.75,12,32.66,28.11,32.66,44.25,0,13.58-8.37,25.9-23.59,34.68L1610.62,853.92C1595.51,862.65,1575.25,866.93,1554.05,866.93Zm-413.8-676.41c-19.92,0-38.91,4-53.07,12.18L784.83,377.32c-13,7.48-20.08,17.64-20.08,28.61,0,13.58,10.62,27.49,29.15,38.19l690.51,398.53c36.33,21,91.38,23.29,122.7,5.21l302.36-174.63c13-7.48,20.09-17.64,20.09-28.61,0-13.57-10.63-27.49-29.16-38.18L1209.89,207.91C1190,196.41,1164.43,190.52,1140.25,190.52Z" transform="translate(-496 -183.62)"/><rect class="cls-1" x="1530.79" y="876.88" width="26.22" height="4.04" transform="translate(153.03 2229.98) rotate(-89.41)"/><path class="cls-1" d="M1916.58,703.46l-3.87-1.18c4.17-13.62.17-26.63.13-26.77l3.85-1.21A53.74,53.74,0,0,1,1916.58,703.46Z" transform="translate(-496 -183.62)"/><path class="cls-1" d="M1904.5,710.5l-3.86-1.18c4.17-13.61.17-26.63.13-26.76l3.85-1.21C1904.8,681.93,1909,695.7,1904.5,710.5Z" transform="translate(-496 -183.62)"/><path class="cls-1" d="M793.24,479c-2.63-11.4-2-28.13-1.93-28.84l4,.17c0,.17-.68,16.89,1.83,27.76Z" transform="translate(-496 -183.62)"/><path class="cls-1" d="M780,471.29c-2.63-11.4-2-28.13-1.92-28.83l4,.17c0,.17-.69,16.89,1.82,27.75Z" transform="translate(-496 -183.62)"/><path class="cls-1" d="M992.84,586.56a9.05,9.05,0,0,1-4.42-1.32l-42.37-24.46c-4.38-2.53-7.82-8-7.82-12.49v-1A5.74,5.74,0,0,1,940.9,542c1.94-1.11,4.55-.88,7.18.62l42.36,24.46c4.38,2.53,7.82,8,7.82,12.49v1a5.74,5.74,0,0,1-2.67,5.25A5.51,5.51,0,0,1,992.84,586.56Zm-49.18-41.19a1.51,1.51,0,0,0-.74.16c-.56.32-.65,1.23-.65,1.74v1c0,3.06,2.66,7.18,5.81,9l42.36,24.45c1.55.89,2.64.89,3.13.63s.65-1.24.65-1.75v-1c0-3.06-2.66-7.18-5.8-9l-42.37-24.45A4.88,4.88,0,0,0,943.66,545.37Z" transform="translate(-496 -183.62)"/><path class="cls-1" d="M1060.82,625.79a9,9,0,0,1-4.42-1.33L1014,600c-4.38-2.53-7.82-8-7.82-12.49v-1a5.7,5.7,0,0,1,2.67-5.25c1.94-1.11,4.55-.9,7.17.62l42.37,24.45c4.38,2.53,7.82,8,7.82,12.5v1a5.71,5.71,0,0,1-2.68,5.25A5.4,5.4,0,0,1,1060.82,625.79Zm-49.18-41.19a1.59,1.59,0,0,0-.74.16c-.56.33-.65,1.24-.65,1.75v1c0,3.05,2.66,7.17,5.8,9L1058.42,621c1.55.9,2.65.89,3.12.63s.66-1.24.66-1.75v-1c0-3.06-2.66-7.18-5.81-9L1014,585.38A5,5,0,0,0,1011.64,584.6Z" transform="translate(-496 -183.62)"/><path class="cls-1" d="M912.67,540.29a9,9,0,0,1-4.41-1.32l-23.83-13.75c-4.39-2.53-7.82-8-7.82-12.49v-1a5.72,5.72,0,0,1,2.67-5.25c1.94-1.12,4.56-.89,7.18.62l23.82,13.75c4.39,2.53,7.83,8,7.83,12.49v1a5.74,5.74,0,0,1-2.67,5.25A5.47,5.47,0,0,1,912.67,540.29ZM882,509.8a1.52,1.52,0,0,0-.75.16c-.56.33-.64,1.24-.64,1.75v1c0,3,2.66,7.17,5.8,9l23.83,13.75c1.55.9,2.64.89,3.13.63s.64-1.24.64-1.75v-1c0-3.06-2.65-7.17-5.8-9l-23.82-13.75A4.94,4.94,0,0,0,882,509.8Z" transform="translate(-496 -183.62)"/><path class="cls-1" d="M897.17,523.42v-1c0-3.76,3.05-5,6.81-2.88l5.28,3.05c3.77,2.17,6.82,7,6.82,10.74v1c0,3.76-3.05,5-6.81,2.88L904,534.17C900.22,532,897.17,527.19,897.17,523.42Z" transform="translate(-496 -183.62)"/><path class="cls-1" d="M912.67,540.29a9,9,0,0,1-4.41-1.32L903,535.92c-4.38-2.53-7.82-8-7.83-12.5v-1a5.72,5.72,0,0,1,2.67-5.25c1.94-1.11,4.55-.89,7.18.61l5.28,3.06c4.39,2.53,7.83,8,7.83,12.49v1a5.74,5.74,0,0,1-2.67,5.25A5.47,5.47,0,0,1,912.67,540.29Zm-13.48-16.87c0,3.06,2.66,7.18,5.8,9l5.29,3.05c1.55.9,2.64.89,3.13.63s.64-1.24.64-1.75v-1c0-3.06-2.65-7.17-5.8-9L903,521.28c-1.56-.89-2.66-.88-3.13-.62s-.65,1.24-.65,1.75Z" transform="translate(-496 -183.62)"/><rect class="cls-1" x="1556.38" y="865.8" width="4.04" height="27.08" transform="translate(-507.15 -163.56) rotate(-0.74)"/><rect class="cls-1" x="1605.91" y="853.39" width="4.04" height="27.08" transform="translate(-506.99 -162.92) rotate(-0.74)"/><rect class="cls-1" x="1492.85" y="869.69" width="26.22" height="4.04" transform="translate(122.67 2184.93) rotate(-89.41)"/><rect class="cls-1" x="1431.29" y="836.44" width="26.23" height="4.04" transform="translate(94.79 2090.34) rotate(-89.4)"/><path class="cls-1" d="M1896,624.86,1197.25,223.07c-29.94-17.22-78.88-17.13-108.76.19l-62.22,36.07c-14.36,8.32-22.27,25.18-17.94,41.2.28,1,.6,2.05,1,3.08.12.3.38,1.36.38,1.36.73,3.57-1.19,7.28-5.93,10s-11.18,3.85-17.36,3.43c0,0-1.84-.16-2.36-.23l-.84-.1c-32.12-3.72-64.56,3.63-92.54,19.85l-92.42,53.57c-16.27,9.43-16.24,24.81.06,34.18L1497,827.49c30,17.21,78.89,17.13,108.77-.19L1896.06,659C1912.33,649.62,1912.3,634.23,1896,624.86Z" transform="translate(-496 -183.62)"/><path class="cls-4" d="M1551.21,843.34c-20.16,0-40.3-4.42-55.66-13.25L796.8,428.3c-8.85-5.09-13.73-12.08-13.75-19.67s4.85-14.59,13.68-19.71l92.42-53.58c28.9-16.75,62.42-23.93,94.4-20.23l.9.1c.48.07,2.2.22,2.2.22,5.88.37,11.58-.71,15.61-3,3.34-1.93,5-4.41,4.49-6.81,0,0-.15-.63-.25-.91-.42-1.15-.77-2.26-1.06-3.36-4.61-17,3.34-35.31,19.32-44.58L1087,220.66c30.77-17.84,80.92-17.94,111.77-.19l698.74,401.79c8.86,5.09,13.74,12.07,13.76,19.67s-4.85,14.59-13.68,19.71L1607.31,829.9C1591.86,838.85,1571.53,843.34,1551.21,843.34ZM966.94,320.16a150,150,0,0,0-74.78,20.37l-92.42,53.58c-6.89,4-10.69,9.15-10.68,14.51s3.82,10.5,10.73,14.47l698.75,401.79c29.19,16.8,76.64,16.71,105.76-.18l290.26-168.26c6.89-4,10.69-9.15,10.68-14.5s-3.82-10.5-10.74-14.47l-698.74-401.8c-29.19-16.78-76.63-16.7-105.77.19l-62.22,36.07c-13.63,7.9-20.43,23.45-16.53,37.82.25.94.55,1.89.89,2.84.12.28.47,1.66.47,1.66,1.06,5.14-1.7,10.09-7.34,13.34-5,2.91-12,4.3-19.07,3.82,0,0-2-.17-2.56-.24l-.77-.09A138.52,138.52,0,0,0,966.94,320.16Z" transform="translate(-496 -183.62)"/><ellipse class="cls-2" cx="485.45" cy="116.73" rx="15.95" ry="9.21"/><path class="cls-3" d="M984.69,298.48c1.79,1,1.79,2.71,0,3.74a7.16,7.16,0,0,1-6.47,0c-1.79-1-1.79-2.71,0-3.74A7.16,7.16,0,0,1,984.69,298.48Z" transform="translate(-496 -183.62)"/><rect class="cls-2" x="1461.85" y="585.03" width="5.03" height="17.72" transform="translate(-278.08 1381.58) rotate(-60)"/><rect class="cls-2" x="1448.34" y="592.53" width="5.03" height="16.77" transform="translate(-376.76 1249.69) rotate(-54.51)"/><rect class="cls-2" x="1433.64" y="599.17" width="5.03" height="15.81" transform="translate(-467.78 1093.39) rotate(-48.36)"/><rect class="cls-2" x="1417.91" y="604.88" width="5.03" height="14.89" transform="translate(-545.81 909.29) rotate(-41.42)"/><rect class="cls-2" x="1401.31" y="609.57" width="5.03" height="14.05" transform="translate(-602.56 696.87) rotate(-33.62)"/><rect class="cls-2" x="1384.03" y="613.16" width="5.02" height="13.34" transform="translate(-628.09 457.29) rotate(-24.88)"/><rect class="cls-2" x="1366.25" y="615.6" width="5.03" height="12.83" transform="translate(-611.77 200.52) rotate(-15.34)"/><rect class="cls-2" x="1348.18" y="616.83" width="5.03" height="12.56" transform="translate(-546.75 -59.1) rotate(-5.18)"/><rect class="cls-2" x="1326.24" y="620.6" width="12.56" height="5.03" transform="translate(96.3 1710.7) rotate(-84.85)"/><rect class="cls-2" x="1308.04" y="619.5" width="12.83" height="5.03" transform="translate(-129.08 1541.51) rotate(-74.66)"/><rect class="cls-2" x="1290.01" y="617.32" width="13.34" height="5.02" transform="translate(-307.55 1351.3) rotate(-65.1)"/><rect class="cls-2" x="1272.38" y="614.08" width="14.04" height="5.02" transform="translate(-438.71 1156.5) rotate(-56.36)"/><rect class="cls-2" x="1255.35" y="609.81" width="14.89" height="5.03" transform="translate(-527.98 970.14) rotate(-48.56)"/><rect class="cls-2" x="1239.16" y="604.57" width="15.81" height="5.03" transform="translate(-584.31 798.26) rotate(-41.64)"/><rect class="cls-2" x="1223.98" y="598.4" width="16.77" height="5.03" transform="translate(-616.05 642.69) rotate(-35.46)"/><rect class="cls-2" x="1210" y="591.38" width="17.72" height="5.03" transform="translate(-629.66 505.29) rotate(-30)"/><rect class="cls-2" x="1197.39" y="583.58" width="18.62" height="5.03" transform="translate(-630.66 382.81) rotate(-25.07)"/><rect class="cls-2" x="1186.3" y="575.09" width="19.43" height="5.03" transform="translate(-622.71 273.65) rotate(-20.58)"/><rect class="cls-2" x="1176.86" y="566.01" width="20.15" height="5.02" transform="translate(-608.02 173.37) rotate(-16.34)"/><rect class="cls-2" x="1169.17" y="556.43" width="20.75" height="5.03" transform="translate(-589.11 85.34) rotate(-12.52)"/><rect class="cls-2" x="1163.32" y="546.45" width="21.21" height="5.03" transform="translate(-565.96 1.74) rotate(-8.77)"/><rect class="cls-2" x="1159.39" y="536.19" width="21.52" height="5.03" transform="translate(-540.54 -73.85) rotate(-5.27)"/><rect class="cls-2" x="1157.41" y="525.75" width="21.68" height="5.03" transform="translate(-510.95 -149.23) rotate(-1.68)"/><polygon class="cls-2" points="683.01 337 661.35 336.34 661.49 331.32 683.16 331.97 683.01 337"/><rect class="cls-2" x="1167.64" y="496.58" width="5.03" height="21.52" transform="translate(62.39 1442.83) rotate(-84.78)"/><rect class="cls-2" x="1171.42" y="486.48" width="5.03" height="21.21" transform="translate(7.16 1397.56) rotate(-81.2)"/><rect class="cls-2" x="1177.03" y="476.73" width="5.03" height="20.75" transform="matrix(0.22, -0.98, 0.98, 0.22, -47.26, 1349.68)"/><rect class="cls-2" x="1184.43" y="467.45" width="5.02" height="20.15" transform="translate(-102.16 1297.81) rotate(-73.61)"/><rect class="cls-2" x="1193.51" y="458.72" width="5.03" height="19.43" transform="translate(-158.47 1240.27) rotate(-69.45)"/><rect class="cls-2" x="1204.19" y="450.64" width="5.03" height="18.62" transform="translate(-216.91 1174.78) rotate(-64.95)"/><rect class="cls-2" x="1216.34" y="443.3" width="5.03" height="17.72" transform="translate(-278.1 1098.07) rotate(-60)"/><rect class="cls-2" x="1229.85" y="436.75" width="5.03" height="16.77" transform="translate(-341.31 1006.81) rotate(-54.53)"/><rect class="cls-2" x="1244.55" y="431.06" width="5.03" height="15.81" transform="translate(-405.59 895.66) rotate(-48.36)"/><rect class="cls-2" x="1260.29" y="426.28" width="5.03" height="14.89" transform="translate(-467.01 760.5) rotate(-41.43)"/><rect class="cls-2" x="1276.89" y="422.43" width="5.03" height="14.05" transform="translate(-519.75 596.7) rotate(-33.62)"/><rect class="cls-2" x="1294.17" y="419.54" width="5.02" height="13.34" transform="translate(-554.91 402) rotate(-24.9)"/><rect class="cls-2" x="1311.94" y="417.62" width="5.03" height="12.83" transform="matrix(0.96, -0.26, 0.26, 0.96, -561.36, 179.59)"/><rect class="cls-2" x="1330.01" y="416.65" width="5.03" height="12.56" transform="matrix(1, -0.09, 0.09, 1, -528.73, -61.63)"/><rect class="cls-2" x="1344.42" y="420.42" width="12.56" height="5.03" transform="translate(312.21 1546.59) rotate(-84.85)"/><rect class="cls-2" x="1362.35" y="421.52" width="12.83" height="5.03" transform="translate(101.8 1448.28) rotate(-74.66)"/><rect class="cls-2" x="1379.87" y="423.7" width="13.34" height="5.02" transform="translate(-80.09 1320.57) rotate(-65.09)"/><rect class="cls-2" x="1396.8" y="426.94" width="14.05" height="5.03" transform="translate(-227.42 1176.63) rotate(-56.36)"/><rect class="cls-2" x="1412.98" y="431.21" width="14.89" height="5.03" transform="translate(-340.3 1028.69) rotate(-48.6)"/><rect class="cls-2" x="1428.25" y="436.46" width="15.81" height="5.03" transform="translate(-424.86 881.42) rotate(-41.63)"/><rect class="cls-2" x="1442.47" y="442.62" width="16.77" height="5.03" transform="translate(-485.16 740.56) rotate(-35.46)"/><rect class="cls-2" x="1455.5" y="449.64" width="17.72" height="5.03" transform="translate(-525.94 608.93) rotate(-29.99)"/><rect class="cls-2" x="1467.21" y="457.43" width="18.62" height="5.03" transform="translate(-551.8 485.26) rotate(-25.07)"/><rect class="cls-2" x="1477.48" y="465.92" width="19.44" height="5.03" transform="translate(-565.75 369.02) rotate(-20.58)"/><rect class="cls-2" x="1486.21" y="475.01" width="20.15" height="5.02" transform="translate(-569.91 256.69) rotate(-16.34)"/><rect class="cls-2" x="1493.3" y="484.59" width="20.75" height="5.03" transform="translate(-565.83 153.83) rotate(-12.52)"/><rect class="cls-2" x="1498.68" y="494.57" width="21.21" height="5.03" transform="translate(-554.13 52.23) rotate(-8.77)"/><rect class="cls-2" x="1502.31" y="504.83" width="21.52" height="5.03" transform="translate(-536.16 -42.67) rotate(-5.26)"/><rect class="cls-2" x="1504.13" y="515.26" width="21.68" height="5.03" transform="translate(-510.55 -138.91) rotate(-1.68)"/><rect class="cls-2" x="1512.45" y="517.43" width="5.03" height="21.68" transform="translate(445.16 1842.96) rotate(-88.27)"/><rect class="cls-2" x="1510.55" y="527.94" width="5.03" height="21.52" transform="translate(342.86 1812.83) rotate(-84.78)"/><rect class="cls-2" x="1506.77" y="538.36" width="5.03" height="21.21" transform="translate(240.02 1772.95) rotate(-81.21)"/><rect class="cls-2" x="1501.16" y="548.57" width="5.03" height="20.75" transform="translate(136.74 1722.51) rotate(-77.51)"/><rect class="cls-2" x="1493.77" y="558.45" width="5.02" height="20.15" transform="translate(32.6 1659.92) rotate(-73.61)"/><rect class="cls-2" x="1484.68" y="567.89" width="5.03" height="19.44" transform="translate(-71.63 1583.85) rotate(-69.45)"/><rect class="cls-2" x="1474" y="576.79" width="5.03" height="18.62" transform="translate(-175.65 1491.92) rotate(-64.95)"/><rect class="cls-2" x="1461.85" y="585.03" width="5.03" height="17.72" transform="translate(-278.08 1381.58) rotate(-60)"/><rect class="cls-3" x="1484.76" y="596.61" width="5.03" height="21.03" transform="translate(-278.06 1408.07) rotate(-60.01)"/><rect class="cls-3" x="1468.74" y="605.5" width="5.03" height="19.9" transform="translate(-380.02 1272.44) rotate(-54.51)"/><rect class="cls-3" x="1451.3" y="613.39" width="5.03" height="18.76" transform="translate(-473.64 1111.72) rotate(-48.36)"/><rect class="cls-3" x="1432.62" y="620.16" width="5.03" height="17.67" transform="translate(-553.1 923.39) rotate(-41.43)"/><rect class="cls-3" x="1412.92" y="625.73" width="5.03" height="16.67" transform="translate(-610.35 705.86) rotate(-33.61)"/><rect class="cls-3" x="1392.42" y="629.99" width="5.02" height="15.83" transform="translate(-634.91 463.13) rotate(-24.91)"/><rect class="cls-3" x="1371.32" y="632.88" width="5.03" height="15.23" transform="matrix(0.96, -0.26, 0.26, 0.96, -616.46, 202.44)"/><rect class="cls-3" x="1349.88" y="634.34" width="5.03" height="14.91" transform="translate(-548.57 -58.51) rotate(-5.2)"/><rect class="cls-3" x="1323.38" y="639.28" width="14.91" height="5.03" transform="translate(76 1725.93) rotate(-84.84)"/><rect class="cls-3" x="1301.77" y="637.98" width="15.23" height="5.03" transform="translate(-150.67 1550.19) rotate(-74.66)"/><rect class="cls-3" x="1280.38" y="635.4" width="15.83" height="5.02" transform="translate(-328.95 1353.98) rotate(-65.09)"/><rect class="cls-3" x="1259.45" y="631.55" width="16.67" height="5.03" transform="translate(-458.54 1154.43) rotate(-56.35)"/><rect class="cls-3" x="1239.25" y="626.48" width="17.67" height="5.03" transform="translate(-545.45 964.76) rotate(-48.56)"/><rect class="cls-3" x="1220.03" y="620.26" width="18.77" height="5.03" transform="translate(-599.23 790.4) rotate(-41.63)"/><rect class="cls-3" x="1202.01" y="612.94" width="19.9" height="5.03" transform="translate(-628.24 633.7) rotate(-35.46)"/><rect class="cls-3" x="1185.43" y="604.61" width="21.02" height="5.03" transform="translate(-639.34 495.61) rotate(-30)"/><rect class="cls-3" x="1170.47" y="595.36" width="22.09" height="5.03" transform="translate(-638.02 373.25) rotate(-25.07)"/><rect class="cls-3" x="1157.31" y="585.29" width="23.06" height="5.03" transform="translate(-628.02 264.68) rotate(-20.58)"/><rect class="cls-3" x="1146.1" y="574.51" width="23.92" height="5.02" transform="translate(-611.57 165.56) rotate(-16.34)"/><rect class="cls-3" x="1136.98" y="563.13" width="24.62" height="5.03" transform="translate(-591.27 78.89) rotate(-12.52)"/><rect class="cls-3" x="1130.04" y="551.29" width="25.17" height="5.03" transform="translate(-567.06 -2.99) rotate(-8.77)"/><rect class="cls-3" x="1125.37" y="539.11" width="25.54" height="5.03" transform="translate(-540.9 -76.91) rotate(-5.26)"/><rect class="cls-3" x="1123.02" y="526.73" width="25.73" height="5.03" transform="translate(-510.99 -150.17) rotate(-1.68)"/><rect class="cls-3" x="1133.37" y="503.94" width="5.03" height="25.73" transform="translate(88.97 1452.91) rotate(-88.27)"/><rect class="cls-3" x="1135.63" y="491.65" width="5.03" height="25.54" transform="translate(36.11 1408.24) rotate(-84.77)"/><rect class="cls-3" x="1140.11" y="479.66" width="5.03" height="25.17" transform="translate(-14.47 1362.59) rotate(-81.21)"/><rect class="cls-3" x="1146.77" y="468.09" width="5.03" height="24.62" transform="translate(-64.4 1314.9) rotate(-77.5)"/><rect class="cls-3" x="1155.55" y="457.07" width="5.03" height="23.92" transform="translate(-114.79 1263.97) rotate(-73.6)"/><rect class="cls-3" x="1166.32" y="446.71" width="5.03" height="23.06" transform="translate(-166.68 1208.1) rotate(-69.44)"/><rect class="cls-3" x="1179" y="437.13" width="5.03" height="22.09" transform="translate(-220.93 1145.01) rotate(-64.94)"/><rect class="cls-3" x="1193.43" y="428.41" width="5.03" height="21.02" transform="translate(-278.15 1071.55) rotate(-60)"/><rect class="cls-3" x="1209.45" y="420.64" width="5.03" height="19.9" transform="translate(-338.23 983.81) rotate(-54.51)"/><rect class="cls-3" x="1226.9" y="413.89" width="5.03" height="18.76" transform="translate(-399.83 877.13) rotate(-48.36)"/><rect class="cls-3" x="1245.57" y="408.22" width="5.03" height="17.67" transform="translate(-459.64 746.62) rotate(-41.43)"/><rect class="cls-3" x="1265.27" y="403.65" width="5.02" height="16.67" transform="matrix(0.83, -0.55, 0.55, 0.83, -512.03, 587.31)"/><rect class="cls-3" x="1285.78" y="400.22" width="5.02" height="15.83" transform="translate(-548.08 396.79) rotate(-24.9)"/><rect class="cls-3" x="1306.87" y="397.94" width="5.03" height="15.23" transform="translate(-556.65 177.51) rotate(-15.35)"/><rect class="cls-3" x="1328.31" y="396.8" width="5.03" height="14.91" transform="translate(-527.05 -61.86) rotate(-5.18)"/><rect class="cls-3" x="1344.94" y="401.73" width="14.91" height="5.03" transform="translate(332.38 1531.27) rotate(-84.85)"/><rect class="cls-3" x="1366.22" y="403.03" width="15.23" height="5.03" transform="translate(123.32 1439.55) rotate(-74.66)"/><rect class="cls-3" x="1387.01" y="405.63" width="15.83" height="5.02" transform="translate(-58.84 1317.71) rotate(-65.09)"/><rect class="cls-3" x="1407.1" y="409.47" width="16.67" height="5.02" transform="matrix(0.55, -0.83, 0.83, 0.55, -207.76, 1178.43)"/><rect class="cls-3" x="1426.3" y="414.54" width="17.67" height="5.03" transform="translate(-323.3 1033.3) rotate(-48.56)"/><rect class="cls-3" x="1444.43" y="420.76" width="18.76" height="5.03" transform="translate(-410.02 889.09) rotate(-41.63)"/><rect class="cls-3" x="1461.3" y="428.08" width="19.9" height="5.03" transform="translate(-472.89 749.83) rotate(-35.46)"/><rect class="cls-3" x="1476.77" y="436.41" width="21.02" height="5.03" transform="translate(-516.23 618.72) rotate(-30)"/><rect class="cls-3" x="1490.66" y="445.66" width="22.09" height="5.03" transform="translate(-544.44 494.81) rotate(-25.07)"/><rect class="cls-3" x="1502.85" y="455.73" width="23.07" height="5.03" transform="translate(-560.44 377.85) rotate(-20.58)"/><rect class="cls-3" x="1513.2" y="466.51" width="23.92" height="5.03" transform="translate(-566.39 267.73) rotate(-16.46)"/><rect class="cls-3" x="1521.62" y="477.89" width="24.62" height="5.03" transform="translate(-563.66 160.27) rotate(-12.52)"/><rect class="cls-3" x="1528.01" y="489.73" width="25.17" height="5.03" transform="matrix(0.99, -0.15, 0.15, 0.99, -553.03, 56.95)"/><rect class="cls-3" x="1532.31" y="501.9" width="25.54" height="5.03" transform="translate(-535.77 -39.72) rotate(-5.26)"/><polygon class="cls-3" points="1038.55 336.08 1038.4 331.05 1064.12 330.27 1064.27 335.3 1038.55 336.08"/><rect class="cls-3" x="1544.82" y="516.38" width="5.03" height="25.73" transform="translate(475.68 1876.3) rotate(-88.27)"/><rect class="cls-3" x="1542.57" y="528.86" width="5.03" height="25.54" transform="translate(369.05 1847.37) rotate(-84.78)"/><rect class="cls-3" x="1538.08" y="541.22" width="5.03" height="25.17" transform="translate(261.84 1808.04) rotate(-81.21)"/><rect class="cls-3" x="1531.42" y="553.33" width="5.03" height="24.62" transform="translate(153.67 1757.16) rotate(-77.5)"/><rect class="cls-3" x="1522.65" y="565.06" width="5.03" height="23.92" transform="translate(45.09 1693.66) rotate(-73.6)"/><rect class="cls-3" x="1511.87" y="576.27" width="5.03" height="23.07" transform="translate(-63.58 1615.88) rotate(-69.45)"/><rect class="cls-3" x="1499.19" y="586.83" width="5.03" height="22.09" transform="translate(-171.88 1521.44) rotate(-64.94)"/><rect class="cls-3" x="1484.76" y="596.61" width="5.03" height="21.03" transform="translate(-278.06 1408.07) rotate(-60.01)"/><path class="cls-2" d="M1323.33,567.69,1294,522.15l-32.51,18.78-11.73-6.77,47.3-27.31,8.75,5,32.15,47.35Z" transform="translate(-496 -183.62)"/><path class="cls-2" d="M1322.82,490.89a46.74,46.74,0,0,1,19.57-6.33q10.09-.85,17.4,3.36c3.37,1.95,5.44,4.21,6.2,6.81s.11,5.69-2,9.28a76.41,76.41,0,0,1,18.89-1.35,30,30,0,0,1,12.68,3.59q8.12,4.68,6.69,11.2T1390.5,530a51.6,51.6,0,0,1-21.6,7.16,32.12,32.12,0,0,1-19.21-4q-5.64-3.25-7-7.52c-.91-2.83-.28-6.17,1.92-10a59.76,59.76,0,0,1-15.74.28,31,31,0,0,1-11.36-3.69q-7.08-4.1-5.59-10T1322.82,490.89Zm10.1,5.93q-3.56,2.07-3.92,4.38t2.7,4.09a14.9,14.9,0,0,0,6.59,1.79A45.19,45.19,0,0,0,1349,506c1.57-2.5,2.21-4.5,1.94-6s-1.35-2.82-3.25-3.91a12.43,12.43,0,0,0-7.17-1.54A17.26,17.26,0,0,0,1332.92,496.82Zm28.86,28.43a15.08,15.08,0,0,0,8.75,1.93,21.86,21.86,0,0,0,9.56-3c3.45-2,5.3-3.92,5.52-5.77s-.88-3.47-3.32-4.88a16.73,16.73,0,0,0-8.2-1.79,76.57,76.57,0,0,0-13.89,1.53Q1355,521.35,1361.78,525.25Z" transform="translate(-496 -183.62)"/><path class="cls-2" d="M1419,490.15q4.3,2.48,4.92,4.62t-2.39,3.88a10.8,10.8,0,0,1-6.64,1.25,20.24,20.24,0,0,1-8-2.78q-8.55-5-2.58-8.39a11.06,11.06,0,0,1,6.74-1.33A19.7,19.7,0,0,1,1419,490.15Zm-8.38,4.88a19.41,19.41,0,0,0,4.7,2.09,4.19,4.19,0,0,0,3.14-.24q2.47-1.42-3-4.62t-8-1.76a1.09,1.09,0,0,0-.41,1.82A12.73,12.73,0,0,0,1410.62,495Zm12.48-16.67,12.18,24.56-3.63,2.09-12.18-24.55Zm24.68,7.83q4.31,2.49,4.91,4.63c.4,1.42-.4,2.71-2.38,3.85a10.78,10.78,0,0,1-6.63,1.27,19.81,19.81,0,0,1-8-2.78q-8.55-4.94-2.56-8.39a11.06,11.06,0,0,1,6.69-1.32A19.64,19.64,0,0,1,1447.78,486.19Zm-8.42,4.86a19.46,19.46,0,0,0,4.73,2.1,4.16,4.16,0,0,0,3.17-.24q2.45-1.41-3.11-4.62t-7.93-1.75c-.82.47-1,1.08-.44,1.81A12.2,12.2,0,0,0,1439.36,491.05Z" transform="translate(-496 -183.62)"/><rect class="cls-3" x="1592.13" y="573.65" width="5.03" height="192.38" transform="translate(-278.82 1532.24) rotate(-60)"/><path class="cls-3" d="M1707.52,761.11l-32-18.43a5.38,5.38,0,0,1,0-9.87l31.21-18a13,13,0,0,1,12.07,0l32,18.43-2.51,4.36-32-18.43a8,8,0,0,0-7,0l-31.21,18a1.65,1.65,0,0,0-.72.64h0a6.11,6.11,0,0,0,.72.53l32,18.43Z" transform="translate(-496 -183.62)"/><path class="cls-3" d="M1684.52,733.42l-13.24-7.66a5.1,5.1,0,0,1-2.86-4.31,4.44,4.44,0,0,1,2.39-3.83l9.65-5.57a9.79,9.79,0,0,1,9.07.27l15.75,9.12Zm-10.46-11.86,10.46,6.06,10.71-6.18-8.22-4.76a4.87,4.87,0,0,0-4-.27Z" transform="translate(-496 -183.62)"/><path class="cls-2" d="M1153.83,240.65c6.66,2.71,16.05.45,17.68,0,.08,0,.17,0,.13.08-.74.94-4.66,6.35.06,10.19.06.05,0,.11-.14.07-6.65-2.71-16.08-.4-17.72,0-.08,0-.17,0-.13-.07.75-.95,4.71-6.41,0-10.25C1153.64,240.67,1153.74,240.61,1153.83,240.65Z" transform="translate(-496 -183.62)"/><path class="cls-2" d="M1128.28,255.43c6.66,2.72,16,.45,17.67,0,.08,0,.17,0,.13.08-.74.94-4.66,6.36.06,10.19.07.06,0,.12-.13.08-6.66-2.72-16.09-.41-17.73,0-.08,0-.16,0-.13-.08.75-.95,4.71-6.4,0-10.24C1128.08,255.45,1128.18,255.39,1128.28,255.43Z" transform="translate(-496 -183.62)"/><path class="cls-2" d="M1102.72,270.22c6.66,2.71,16,.45,17.67,0,.09,0,.17,0,.14.08-.75.94-4.67,6.35,0,10.19.07.05,0,.11-.13.07-6.66-2.71-16.08-.4-17.72,0-.09,0-.17,0-.13-.07.75-1,4.71-6.41,0-10.25C1102.52,270.24,1102.63,270.18,1102.72,270.22Z" transform="translate(-496 -183.62)"/><path class="cls-2" d="M1077.17,285c6.65,2.72,16,.45,17.67,0,.08,0,.17,0,.13.08-.74.94-4.66,6.36.06,10.19.06.06,0,.12-.13.08-6.66-2.72-16.09-.41-17.73,0-.08,0-.17,0-.13-.08.75-.95,4.71-6.4,0-10.24C1077,285,1077.07,285,1077.17,285Z" transform="translate(-496 -183.62)"/><path class="cls-2" d="M1051.61,299.79c6.66,2.71,16,.45,17.67,0,.09,0,.17,0,.13.08-.74.94-4.66,6.35.06,10.19.07.05,0,.11-.13.07-6.66-2.71-16.09-.4-17.72,0-.09,0-.17,0-.14-.07.75-.95,4.72-6.41,0-10.25C1051.41,299.81,1051.52,299.75,1051.61,299.79Z" transform="translate(-496 -183.62)"/><path class="cls-2" d="M974.94,344.14c6.66,2.72,16,.45,17.67,0,.09,0,.17,0,.13.08-.74.94-4.66,6.35.06,10.19.07.06,0,.12-.13.08-6.66-2.72-16.09-.41-17.72,0-.09,0-.17,0-.13-.08.75-.95,4.71-6.4,0-10.24C974.74,344.16,974.85,344.1,974.94,344.14Z" transform="translate(-496 -183.62)"/><path class="cls-2" d="M949.39,358.93c6.65,2.71,16,.45,17.67,0,.08,0,.17,0,.13.07-.74.94-4.66,6.36.06,10.2.06,0,0,.11-.13.07-6.66-2.71-16.09-.4-17.73,0-.08,0-.17,0-.13-.07.75-.95,4.71-6.41,0-10.25C949.19,359,949.29,358.89,949.39,358.93Z" transform="translate(-496 -183.62)"/><path class="cls-2" d="M1102.59,240.63c6.66,2.72,16,.45,17.67,0,.09,0,.17,0,.13.08-.74.94-4.66,6.35.06,10.19.07.06,0,.12-.13.08-6.66-2.72-16.09-.41-17.72,0-.09,0-.17,0-.14-.08.75-.95,4.72-6.4,0-10.24C1102.39,240.65,1102.5,240.59,1102.59,240.63Z" transform="translate(-496 -183.62)"/><path class="cls-2" d="M1077,255.42c6.66,2.71,16,.45,17.68,0,.08,0,.16,0,.13.07-.74.94-4.66,6.36.06,10.2.06.05,0,.11-.14.07-6.66-2.71-16.08-.41-17.72,0-.08,0-.17,0-.13-.07.75-.95,4.71-6.41,0-10.25C1076.83,255.44,1076.94,255.38,1077,255.42Z" transform="translate(-496 -183.62)"/><path class="cls-2" d="M1051.48,270.2c6.66,2.72,16,.45,17.67,0,.08,0,.17,0,.13.08-.74.94-4.66,6.35.06,10.19.07.06,0,.12-.13.08-6.66-2.72-16.09-.41-17.73,0-.08,0-.17,0-.13-.08.75-.95,4.71-6.4,0-10.24C1051.28,270.22,1051.38,270.16,1051.48,270.2Z" transform="translate(-496 -183.62)"/><path class="cls-2" d="M923.7,344.12c6.65,2.72,16,.46,17.67,0,.08,0,.17,0,.13.07-.74.94-4.66,6.36.06,10.2.07.05,0,.11-.13.07-6.66-2.71-16.09-.41-17.73,0-.08,0-.17,0-.13-.08.75-.94,4.71-6.4,0-10.24C923.5,344.15,923.6,344.09,923.7,344.12Z" transform="translate(-496 -183.62)"/><path class="cls-2" d="M923.83,373.71c6.66,2.72,16,.45,17.67,0,.09,0,.17,0,.13.08-.74.94-4.66,6.35.06,10.19.07.06,0,.12-.13.08-6.66-2.72-16.09-.41-17.73,0-.08,0-.16,0-.13-.08.75-.95,4.72-6.4,0-10.24C923.63,373.73,923.74,373.67,923.83,373.71Z" transform="translate(-496 -183.62)"/><path class="cls-2" d="M898.27,388.5c6.66,2.71,16.05.45,17.68,0,.08,0,.16,0,.13.07-.74.94-4.66,6.36.06,10.2.06,0,0,.11-.14.07-6.66-2.71-16.08-.41-17.72,0-.08,0-.17,0-.13-.07.75-.95,4.71-6.41,0-10.25C898.07,388.52,898.18,388.46,898.27,388.5Z" transform="translate(-496 -183.62)"/><path class="cls-2" d="M872.72,403.28c6.66,2.72,16,.45,17.67,0,.08,0,.17,0,.13.08-.74.94-4.66,6.35.06,10.19.07.06,0,.12-.13.08-6.66-2.72-16.09-.41-17.73,0-.08,0-.17,0-.13-.08.75-1,4.71-6.4,0-10.24C872.52,403.3,872.62,403.24,872.72,403.28Z" transform="translate(-496 -183.62)"/><path class="cls-2" d="M847.16,418.07c6.66,2.71,16,.45,17.67,0,.09,0,.17,0,.13.07-.74.94-4.66,6.36.06,10.2.07.05,0,.11-.13.07-6.66-2.71-16.09-.41-17.72,0-.09,0-.17,0-.13-.07.74-.95,4.71-6.41,0-10.25C847,418.09,847.07,418,847.16,418.07Z" transform="translate(-496 -183.62)"/><path class="cls-2" d="M898.14,358.91c6.66,2.72,16,.45,17.67,0,.09,0,.17,0,.13.08-.74.94-4.66,6.35.06,10.19.07.05,0,.12-.13.08-6.66-2.72-16.09-.41-17.72,0-.09,0-.17,0-.13-.08.74-1,4.71-6.4,0-10.24C897.94,358.93,898.05,358.87,898.14,358.91Z" transform="translate(-496 -183.62)"/><path class="cls-2" d="M872.59,373.69c6.65,2.72,16,.46,17.67,0,.08,0,.17,0,.13.07-.74.94-4.66,6.36.06,10.2.06.05,0,.11-.14.07-6.65-2.71-16.08-.41-17.72,0-.08,0-.17,0-.13-.08.75-.94,4.71-6.4,0-10.24C872.39,373.72,872.49,373.66,872.59,373.69Z" transform="translate(-496 -183.62)"/><path class="cls-2" d="M847,388.48c6.66,2.72,16,.45,17.67,0,.09,0,.17,0,.13.08-.74.94-4.66,6.35.06,10.19.07.06,0,.12-.13.08-6.66-2.72-16.09-.41-17.73,0-.08,0-.16,0-.13-.07.75-.95,4.71-6.4,0-10.24C846.83,388.5,846.93,388.44,847,388.48Z" transform="translate(-496 -183.62)"/><rect class="cls-3" x="1244.45" y="221.49" width="5.03" height="100.67" transform="translate(-125.79 1015.62) rotate(-58.91)"/><rect class="cls-3" x="1309.45" y="297.92" width="5.03" height="24.01" transform="translate(-101.28 1114.22) rotate(-60.42)"/><rect class="cls-3" x="1866.55" y="617" width="5.03" height="24.02" transform="translate(-96.55 1760.41) rotate(-60.42)"/><rect class="cls-3" x="879.07" y="440.15" width="5.03" height="24.02" transform="translate(-442.75 812.12) rotate(-60.43)"/><path class="cls-3" d="M1557.41,823.33l-.27-5a78.9,78.9,0,0,0,36.23-10.9l2.56,4.33A84,84,0,0,1,1557.41,823.33Z" transform="translate(-496 -183.62)"/><path class="cls-3" d="M1541.47,822.86a106.23,106.23,0,0,1-37.1-11.09l-85-49.13,2.52-4.36,84.94,49.12A103.23,103.23,0,0,0,1542,817.87Z" transform="translate(-496 -183.62)"/><rect class="cls-3" x="1381.12" y="715.69" width="5.03" height="48.68" transform="translate(-443.59 1387.01) rotate(-60.1)"/><path class="cls-1" d="M1705.46,817.42a3,3,0,0,1-1.53-.4,3.71,3.71,0,0,1-1.65-3.35,9,9,0,0,1,4.12-7.13,3.65,3.65,0,0,1,3.72-.25,3.7,3.7,0,0,1,1.65,3.35,9,9,0,0,1-4.12,7.13A4.35,4.35,0,0,1,1705.46,817.42Zm3.13-9a1.91,1.91,0,0,0-.94.31,6.5,6.5,0,0,0-2.85,4.95c0,.59.15,1,.39,1.17s.71,0,1.21-.25a6.52,6.52,0,0,0,2.86-5,1.4,1.4,0,0,0-.39-1.17A.64.64,0,0,0,1708.59,808.41Z" transform="translate(-496 -183.62)"/><path class="cls-1" d="M1689.35,826.72a3,3,0,0,1-1.53-.4,3.68,3.68,0,0,1-1.65-3.35,9,9,0,0,1,4.12-7.13,3.35,3.35,0,0,1,5.37,3.1,9,9,0,0,1-4.12,7.14A4.46,4.46,0,0,1,1689.35,826.72Zm3.13-9a2.06,2.06,0,0,0-.94.31,6.43,6.43,0,0,0-2.86,5c0,.59.15,1,.39,1.17s.71.05,1.22-.24a6.43,6.43,0,0,0,2.86-5,1.4,1.4,0,0,0-.39-1.17A.61.61,0,0,0,1692.48,817.71Z" transform="translate(-496 -183.62)"/><path class="cls-1" d="M1673.24,836a3,3,0,0,1-1.53-.4,3.67,3.67,0,0,1-1.65-3.34,9,9,0,0,1,4.12-7.14,3.69,3.69,0,0,1,3.72-.24,3.65,3.65,0,0,1,1.65,3.35,9,9,0,0,1-4.12,7.13A4.39,4.39,0,0,1,1673.24,836Zm3.12-9a2,2,0,0,0-.93.31,6.42,6.42,0,0,0-2.86,5c0,.58.15,1,.39,1.16a1.37,1.37,0,0,0,1.22-.24,6.41,6.41,0,0,0,2.86-5c0-.59-.15-1-.39-1.18A.62.62,0,0,0,1676.36,827Z" transform="translate(-496 -183.62)"/><path class="cls-1" d="M1657.13,845.32a3,3,0,0,1-1.53-.4,3.67,3.67,0,0,1-1.65-3.34,9,9,0,0,1,4.12-7.14,3.36,3.36,0,0,1,5.37,3.1,9,9,0,0,1-4.12,7.14A4.39,4.39,0,0,1,1657.13,845.32Zm3.13-9a2.06,2.06,0,0,0-.94.31,6.53,6.53,0,0,0-2.86,5c0,.57.15,1,.4,1.16a1.38,1.38,0,0,0,1.21-.24,6.42,6.42,0,0,0,2.86-5c0-.58-.15-1-.39-1.16A.51.51,0,0,0,1660.26,836.31Z" transform="translate(-496 -183.62)"/><path class="cls-1" d="M1641,854.63a3.09,3.09,0,0,1-1.53-.4,3.7,3.7,0,0,1-1.65-3.35,9,9,0,0,1,4.12-7.14,3.36,3.36,0,0,1,5.37,3.11,9,9,0,0,1-4.11,7.13A4.47,4.47,0,0,1,1641,854.63Zm3.12-9a1.85,1.85,0,0,0-.92.31,6.4,6.4,0,0,0-2.87,5c0,.58.15,1,.4,1.17s.71,0,1.21-.25a6.43,6.43,0,0,0,2.86-4.95c0-.59-.15-1-.4-1.17A.47.47,0,0,0,1644.14,845.61Z" transform="translate(-496 -183.62)"/><path class="cls-1" d="M1875.55,719.39a3,3,0,0,1-1.53-.4,3.7,3.7,0,0,1-1.66-3.35,9,9,0,0,1,4.12-7.13,3.36,3.36,0,0,1,5.38,3.1,9,9,0,0,1-4.12,7.14A4.49,4.49,0,0,1,1875.55,719.39Zm3.12-9a2,2,0,0,0-.93.31,6.52,6.52,0,0,0-2.86,5c0,.58.15,1,.4,1.17s.7.05,1.2-.24a6.46,6.46,0,0,0,2.87-5,1.4,1.4,0,0,0-.4-1.17A.58.58,0,0,0,1878.67,710.37Z" transform="translate(-496 -183.62)"/><path class="cls-1" d="M1859.44,728.69a3,3,0,0,1-1.54-.4,3.71,3.71,0,0,1-1.65-3.35,9,9,0,0,1,4.12-7.13,3.36,3.36,0,0,1,5.38,3.1,9,9,0,0,1-4.12,7.14A4.49,4.49,0,0,1,1859.44,728.69Zm3.12-9a2,2,0,0,0-.93.3,6.45,6.45,0,0,0-2.86,5,.93.93,0,0,0,1.6.93,6.46,6.46,0,0,0,2.87-5,1.4,1.4,0,0,0-.4-1.17A.58.58,0,0,0,1862.56,719.68Z" transform="translate(-496 -183.62)"/><path class="cls-1" d="M1843.33,738a3.05,3.05,0,0,1-1.54-.4,3.67,3.67,0,0,1-1.65-3.35,9,9,0,0,1,4.12-7.13,3.36,3.36,0,0,1,5.38,3.1,9,9,0,0,1-4.12,7.14A4.49,4.49,0,0,1,1843.33,738Zm3.12-9a1.91,1.91,0,0,0-.93.31,6.41,6.41,0,0,0-2.86,5c0,.59.15,1,.39,1.17a1.35,1.35,0,0,0,1.21-.24,6.42,6.42,0,0,0,2.87-5,1.4,1.4,0,0,0-.4-1.17A.58.58,0,0,0,1846.45,729Z" transform="translate(-496 -183.62)"/><path class="cls-1" d="M1827.22,747.29a3.05,3.05,0,0,1-1.54-.4,3.67,3.67,0,0,1-1.65-3.34,9,9,0,0,1,4.12-7.14,3.36,3.36,0,0,1,5.38,3.1,9,9,0,0,1-4.12,7.14A4.39,4.39,0,0,1,1827.22,747.29Zm3.12-9a2,2,0,0,0-.93.31,6.42,6.42,0,0,0-2.86,5,1.4,1.4,0,0,0,.39,1.17,1.43,1.43,0,0,0,1.21-.25,6.43,6.43,0,0,0,2.87-5,1.4,1.4,0,0,0-.4-1.17A.58.58,0,0,0,1830.34,738.28Z" transform="translate(-496 -183.62)"/><path class="cls-1" d="M1811.11,756.59a3.05,3.05,0,0,1-1.54-.4,3.69,3.69,0,0,1-1.65-3.35,9,9,0,0,1,4.12-7.13,3.36,3.36,0,0,1,5.38,3.11,9,9,0,0,1-4.12,7.13A4.39,4.39,0,0,1,1811.11,756.59Zm3.12-9a2,2,0,0,0-.93.31,6.41,6.41,0,0,0-2.86,5c0,.59.15,1,.39,1.18a1.39,1.39,0,0,0,1.21-.25,6.53,6.53,0,0,0,2.87-4.95c0-.59-.16-1-.4-1.17A.49.49,0,0,0,1814.23,747.58Z" transform="translate(-496 -183.62)"/><path class="cls-1" d="M1566.21,1271.6c-1.94-1.11-4.55-.89-7.17.62l-42.37,24.45c-4.38,2.54-7.82,8-7.82,12.5v1a5.71,5.71,0,0,0,2.68,5.25l70.12,40.77a.83.83,0,0,0,.95-.07l53.28-42.7a.84.84,0,0,0-.1-1.38Z" transform="translate(-496 -183.62)"/><path class="cls-2" d="M1582.08,1358.83a3.42,3.42,0,0,1-1.69-.45l-70.13-40.77a8.23,8.23,0,0,1-3.92-7.43v-1c0-5.38,3.9-11.69,9.08-14.67l42.36-24.46c3.41-2,6.94-2.19,9.68-.62h0l69.57,40.45a3.36,3.36,0,0,1,.41,5.52l-53.28,42.7A3.34,3.34,0,0,1,1582.08,1358.83Zm-18.63-85.42a6.58,6.58,0,0,0-3.16,1l-42.36,24.45c-3.62,2.09-6.57,6.72-6.57,10.32v1a3.37,3.37,0,0,0,1.42,3.07l69.14,40.2L1632.4,1313,1565,1273.78A3,3,0,0,0,1563.45,1273.41Z" transform="translate(-496 -183.62)"/><path class="cls-3" d="M1635.78,1312.05l-69.57-40.45c-1.94-1.11-4.55-.89-7.17.62l-42.37,24.45c-.88.51-.83,1.69-1.62,2.42l80.4,46.74,40.43-32.4A.84.84,0,0,0,1635.78,1312.05Z" transform="translate(-496 -183.62)"/><path class="cls-2" d="M1595.68,1348.87l-84.85-49.33,2.53-2.31a5,5,0,0,1,2.06-2.74l42.36-24.45c3.41-2,6.94-2.19,9.68-.62l69.59,40.45a3.36,3.36,0,0,1,.4,5.52Zm-76.89-50.52,76.44,44.44,37.17-29.8L1565,1273.77c-1.14-.65-2.84-.42-4.66.63Z" transform="translate(-496 -183.62)"/><path class="cls-2" d="M1582.15,1356.49a5.7,5.7,0,0,1-2.67-5.25v-1c0-4.48,3.43-10,7.82-12.5l42.36-24.45c2.63-1.51,5.24-1.73,7.18-.62a5.74,5.74,0,0,1,2.67,5.25v1c0,4.47-3.44,10-7.83,12.49l-42.36,24.45a9,9,0,0,1-4.43,1.32A5.4,5.4,0,0,1,1582.15,1356.49Z" transform="translate(-496 -183.62)"/><path class="cls-2" d="M1584.89,1359.71a7.86,7.86,0,0,1-4-1h0a8.24,8.24,0,0,1-3.93-7.43v-1c0-5.37,3.9-11.68,9.08-14.68l42.37-24.44c3.41-2,6.93-2.19,9.67-.63a8.24,8.24,0,0,1,3.94,7.43v1c0,5.37-3.9,11.68-9.08,14.67L1590.57,1358A11.44,11.44,0,0,1,1584.89,1359.71Zm-1.49-5.4c1.14.66,2.87.42,4.65-.62l42.38-24.44c3.62-2.09,6.56-6.72,6.56-10.32v-1a3.36,3.36,0,0,0-1.41-3.07c-1.13-.66-2.84-.43-4.66.62l-42.36,24.44c-3.63,2.1-6.57,6.73-6.57,10.33v1a3.36,3.36,0,0,0,1.41,3.07Z" transform="translate(-496 -183.62)"/><path class="cls-1" d="M1617.13,1325.37h0c-1.53-1.17-3.81-1.14-6.34.32-4.6,2.66-8.33,9.12-8.33,14.43,0,2.76,1,4.66,2.62,5.48h0l22.71,12.81a.26.26,0,0,0,.37-.11l10.28-20.43a.27.27,0,0,0-.11-.36Z" transform="translate(-496 -183.62)"/><path class="cls-2" d="M1627.71,1361.15l-1.14-.54-22.72-12.82c-2.45-1.25-3.9-4.06-3.9-7.67,0-6.2,4.21-13.5,9.59-16.6,3.3-1.91,6.56-2,9-.25l23.13,13.24-1,2.48-10.77,21.4Zm-13.17-34.09a5.22,5.22,0,0,0-2.49.81c-3.83,2.21-7.07,7.82-7.07,12.25,0,1.65.45,2.84,1.25,3.24l20.74,11.7,8.27-16.42-19.64-11.27A1.69,1.69,0,0,0,1614.54,1327.06Z" transform="translate(-496 -183.62)"/><path class="cls-2" d="M1641.59,1343.54a17.79,17.79,0,0,1-8,14c-4.45,2.57-8,.49-8-4.65s3.6-11.38,8-13.95S1641.59,1338.41,1641.59,1343.54Z" transform="translate(-496 -183.62)"/><path class="cls-2" d="M1629.93,1361.1a6.61,6.61,0,0,1-3.34-.87c-2.3-1.33-3.61-4-3.61-7.39,0-6,4.09-13.11,9.31-16.12,2.91-1.69,5.91-1.89,8.2-.56s3.62,4,3.62,7.39c0,6-4.09,13.1-9.31,16.11A9.75,9.75,0,0,1,1629.93,1361.1Zm7.21-20.79a4.93,4.93,0,0,0-2.34.76,15.3,15.3,0,0,0-6.8,11.77c0,1.5.42,2.64,1.1,3s1.87.19,3.19-.57a15.27,15.27,0,0,0,6.79-11.76c0-1.51-.41-2.64-1.1-3A1.61,1.61,0,0,0,1637.14,1340.31Z" transform="translate(-496 -183.62)"/><path class="cls-1" d="M1785.62,758.49c-1.95-1.11-4.55-.9-7.18.61l-42.36,24.46c-4.39,2.53-7.83,8-7.83,12.49v1a5.71,5.71,0,0,0,2.68,5.25l70.12,40.77a.85.85,0,0,0,1-.07l53.28-42.7a.85.85,0,0,0-.1-1.39Z" transform="translate(-496 -183.62)"/><path class="cls-2" d="M1801.47,845.71a3.31,3.31,0,0,1-1.67-.44l-70.14-40.78a8.22,8.22,0,0,1-3.92-7.42v-1c0-5.37,3.9-11.68,9.08-14.68l42.36-24.45c3.42-2,6.94-2.19,9.69-.62h0l69.56,40.44a3.34,3.34,0,0,1,1.66,2.65,3.38,3.38,0,0,1-1.24,2.87L1803.57,845A3.37,3.37,0,0,1,1801.47,845.71Zm-18.62-85.41a6.55,6.55,0,0,0-3.16,1l-42.36,24.45c-3.62,2.1-6.57,6.73-6.57,10.33v1a3.37,3.37,0,0,0,1.42,3.07l69.15,40.2,50.48-40.46-67.45-39.21A3,3,0,0,0,1782.85,760.3Z" transform="translate(-496 -183.62)"/><path class="cls-3" d="M1855.18,798.93l-69.56-40.44c-1.95-1.11-4.55-.9-7.18.61l-42.36,24.46c-.89.51-.83,1.69-1.62,2.41l80.4,46.75,40.42-32.4A.85.85,0,0,0,1855.18,798.93Z" transform="translate(-496 -183.62)"/><path class="cls-2" d="M1815.08,835.76l-84.84-49.33,2.52-2.31a5,5,0,0,1,2.06-2.74l42.36-24.45c3.42-2,6.94-2.19,9.69-.62l69.57,40.45a3.34,3.34,0,0,1,1.66,2.65,3.38,3.38,0,0,1-1.24,2.87Zm-76.89-50.52,76.44,44.44,37.18-29.8-67.46-39.22c-1.13-.65-2.83-.43-4.66.62Z" transform="translate(-496 -183.62)"/><path class="cls-2" d="M1801.55,843.38a5.72,5.72,0,0,1-2.67-5.25v-1c0-4.47,3.44-10,7.82-12.49l42.36-24.45c2.63-1.52,5.24-1.73,7.18-.62a5.72,5.72,0,0,1,2.67,5.25v1c0,4.48-3.44,10-7.82,12.5l-42.37,24.44a9,9,0,0,1-4.42,1.33A5.44,5.44,0,0,1,1801.55,843.38Z" transform="translate(-496 -183.62)"/><path class="cls-2" d="M1804.3,846.59a7.94,7.94,0,0,1-4-1h0a8.26,8.26,0,0,1-3.93-7.44v-1c0-5.37,3.91-11.68,9.08-14.68L1847.81,798c3.41-2,6.94-2.19,9.68-.62a8.24,8.24,0,0,1,3.93,7.43v1c0,5.38-3.9,11.69-9.08,14.68L1810,844.93A11.45,11.45,0,0,1,1804.3,846.59Zm-1.5-5.39c1.13.65,2.88.4,4.66-.62l42.37-24.45c3.62-2.09,6.57-6.71,6.57-10.32v-1a3.39,3.39,0,0,0-1.42-3.08c-1.14-.64-2.84-.42-4.66.62L1808,826.79c-3.62,2.1-6.57,6.73-6.57,10.33v1a3.4,3.4,0,0,0,1.41,3.08Z" transform="translate(-496 -183.62)"/><path class="cls-1" d="M1836.53,812.26h0c-1.53-1.17-3.8-1.14-6.33.32-4.6,2.66-8.34,9.12-8.34,14.43,0,2.76,1,4.66,2.63,5.48h0l22.7,12.81a.27.27,0,0,0,.37-.11l10.28-20.43a.27.27,0,0,0-.11-.36Z" transform="translate(-496 -183.62)"/><path class="cls-2" d="M1847.12,848l-1.15-.54-22.72-12.82c-2.45-1.25-3.9-4.06-3.9-7.67,0-6.2,4.21-13.5,9.59-16.61,3.29-1.91,6.54-2,9-.25l23.14,13.25-1,2.48-10.76,21.39ZM1834,813.94a5.28,5.28,0,0,0-2.5.82c-3.83,2.21-7.07,7.82-7.07,12.25,0,1.65.45,2.84,1.25,3.24l20.74,11.7,8.27-16.43L1835,814.26A1.68,1.68,0,0,0,1834,813.94Z" transform="translate(-496 -183.62)"/><path class="cls-2" d="M1861,830.43c0,5.14-3.61,11.38-8.06,14s-8,.48-8-4.65,3.61-11.38,8-14S1861,825.3,1861,830.43Z" transform="translate(-496 -183.62)"/><path class="cls-2" d="M1849.33,848a6.61,6.61,0,0,1-3.34-.87c-2.3-1.33-3.61-4-3.61-7.39,0-6,4.09-13.12,9.31-16.13,2.91-1.68,5.91-1.89,8.21-.56s3.61,4,3.61,7.39c0,6-4.09,13.11-9.31,16.12A9.72,9.72,0,0,1,1849.33,848Zm7.21-20.79a5,5,0,0,0-2.34.76,15.26,15.26,0,0,0-6.79,11.77c0,1.5.41,2.64,1.1,3s1.87.19,3.18-.57a15.26,15.26,0,0,0,6.79-11.77c0-1.5-.41-2.64-1.1-3A1.58,1.58,0,0,0,1856.54,827.2Z" transform="translate(-496 -183.62)"/><path class="cls-2" d="M1914.56,1444.26a488.43,488.43,0,0,1-249.42-68.52l-35.45-21.07,7.71-13,35.45,21.07a473.37,473.37,0,0,0,241.71,66.4,317.93,317.93,0,0,0,156.05-41,108.5,108.5,0,0,0,55-94.32,122.38,122.38,0,0,0-59.5-104.67l-134.51-80.1a54.94,54.94,0,0,1-27-46.44,95.8,95.8,0,0,1,46.08-83.56,52.8,52.8,0,0,0,25.33-44.93,33.77,33.77,0,0,0-16.88-29.19l-110-63.33,7.53-13.07,110,63.33a48.87,48.87,0,0,1,24.44,42.26A68,68,0,0,1,1958.55,992a80.68,80.68,0,0,0-38.8,70.36,39.9,39.9,0,0,0,19.61,33.76l134.52,80.1a137.55,137.55,0,0,1,66.86,117.64A123.6,123.6,0,0,1,2078,1401.28,333,333,0,0,1,1914.56,1444.26Z" transform="translate(-496 -183.62)"/><path class="cls-1" d="M1630.89,1357.37a10.72,10.72,0,0,1,0-11.31c3.62-5.8,8.73-5,9-5l-.64,3.72c-.06,0-2.89-.35-5.13,3.24a7,7,0,0,0,0,7.22Z" transform="translate(-496 -183.62)"/><path class="cls-1" d="M1849,843.53a10.68,10.68,0,0,1,0-11.3c3.63-5.81,8.76-5,9-5l-.64,3.71c-.1,0-2.89-.33-5.13,3.25a6.91,6.91,0,0,0,0,7.2Z" transform="translate(-496 -183.62)"/><path class="cls-1" d="M1992.26,1150c-.07-.29-1.71-7.25,2.31-12.67,2.69-3.61,7.15-5.6,13.25-5.92l.2,3.76c-4.92.26-8.42,1.74-10.4,4.39-3,4-1.7,9.49-1.69,9.55Z" transform="translate(-496 -183.62)"/><path class="cls-1" d="M2002.5,1158.12c-.07-.29-1.72-7.26,2.31-12.68,2.69-3.61,7.14-5.6,13.25-5.92l.2,3.76c-4.92.26-8.42,1.74-10.41,4.39-3,4-1.7,9.5-1.69,9.56Z" transform="translate(-496 -183.62)"/><path class="cls-1" d="M1955.48,1446.87c-5.53-2.62-8.9-6.15-10-10.51-1.67-6.55,2.49-12.36,2.67-12.6l3,2.21s-3.3,4.67-2.06,9.49c.83,3.2,3.51,5.89,8,8Z" transform="translate(-496 -183.62)"/><path class="cls-1" d="M1867.57,857.06c-.07-.29-1.72-7.26,2.31-12.68,2.68-3.61,7.14-5.6,13.25-5.92l.2,3.76c-4.92.26-8.42,1.74-10.41,4.39-3,4-1.7,9.5-1.69,9.56Z" transform="translate(-496 -183.62)"/><path class="cls-1" d="M1645.41,1367.17c-.07-.29-1.72-7.25,2.31-12.68,2.68-3.6,7.14-5.6,13.25-5.91l.2,3.76c-4.92.25-8.42,1.73-10.41,4.38-3,4-1.7,9.5-1.69,9.56Z" transform="translate(-496 -183.62)"/></g></g></svg>